/* XPM */
static char *projectsuccess1676875859[] = {
/* columns rows colors chars-per-pixel */
"64 64 203 2 ",
"   c None",
".  c #010101",
"X  c #0B0602",
"o  c #0D0B04",
"O  c #0C0B0B",
"+  c #150D01",
"@  c #150E0C",
"#  c #1A0F0A",
"$  c #1C1203",
"%  c #1B110E",
"&  c #161108",
"*  c #141313",
"=  c #1D1311",
"-  c #1C1C1C",
";  c #1C1815",
":  c #241A04",
">  c #271C08",
",  c #321A02",
"<  c #3A1F03",
"1  c #221A14",
"2  c #251D19",
"3  c #2D1C1B",
"4  c #221714",
"5  c #301D1C",
"6  c #2A2209",
"7  c #362809",
"8  c #352B11",
"9  c #382916",
"0  c #3E3619",
"q  c #25221C",
"w  c #232324",
"e  c #2C2C2C",
"r  c #3B2C25",
"t  c #382722",
"y  c #3B3324",
"u  c #2E2E30",
"i  c #323131",
"p  c #3F3E3F",
"a  c #4C2903",
"s  c #492603",
"d  c #463209",
"f  c #493808",
"g  c #583B09",
"h  c #4D3C19",
"j  c #473715",
"k  c #543B13",
"l  c #462C28",
"z  c #453827",
"x  c #53332F",
"c  c #483D39",
"v  c #563431",
"b  c #513D34",
"n  c #623C38",
"m  c #5A471D",
"M  c #4B4216",
"N  c #6C4E0C",
"B  c #63490C",
"V  c #6C580B",
"C  c #755A0C",
"Z  c #614919",
"A  c #695312",
"S  c #775A17",
"D  c #7E4A0E",
"F  c #7A6312",
"G  c #594535",
"H  c #4E4223",
"J  c #655223",
"K  c #614A3D",
"L  c #6B413E",
"P  c #6F532F",
"I  c #7A6529",
"U  c #716233",
"Y  c #414041",
"T  c #4C4B4C",
"R  c #484748",
"E  c #525252",
"W  c #585758",
"Q  c #585657",
"!  c #744A44",
"~  c #7D5249",
"^  c #785649",
"/  c #674F42",
"(  c #766740",
")  c #646363",
"_  c #6C6B6C",
"`  c #706F71",
"'  c #757374",
"]  c #797779",
"[  c #7E7C7E",
"{  c #787777",
"}  c #90520C",
"|  c #AB5A07",
" . c #966B0F",
".. c #886517",
"X. c #966B11",
"o. c #937912",
"O. c #B96208",
"+. c #AB7A13",
"@. c #A17816",
"#. c #B07F15",
"$. c #956B25",
"%. c #8E7022",
"&. c #937627",
"*. c #987C35",
"=. c #866122",
"-. c #A17E33",
";. c #A27427",
":. c #C16708",
">. c #87544E",
",. c #8E5C52",
"<. c #955C56",
"1. c #9C695D",
"2. c #946057",
"3. c #8B6255",
"4. c #A06C5F",
"5. c #A47B52",
"6. c #9C7663",
"7. c #AE6C64",
"8. c #A76960",
"9. c #A77364",
"0. c #AB7666",
"q. c #A37C67",
"w. c #A37C68",
"e. c #AC7968",
"r. c #BD736D",
"t. c #BA7B6E",
"y. c #B27568",
"u. c #B46D67",
"i. c #C0746E",
"p. c #CC7C75",
"a. c #C17770",
"s. c #B98617",
"d. c #948135",
"f. c #A78935",
"g. c #B99337",
"h. c #C58C15",
"j. c #CD9217",
"k. c #D59613",
"l. c #D19719",
"z. c #DF861A",
"x. c #E3881A",
"c. c #EEAB16",
"v. c #EDB115",
"b. c #EFBF13",
"n. c #C1983E",
"m. c #EA9A28",
"M. c #E69324",
"N. c #C9A53C",
"B. c #F8B928",
"V. c #F3CD12",
"C. c #F4C219",
"Z. c #F7CE31",
"A. c #BAA757",
"S. c #B5866D",
"D. c #B78972",
"F. c #A88567",
"G. c #D4BB48",
"H. c #CEB754",
"J. c #F4BF4D",
"K. c #ECBF41",
"L. c #C08A76",
"P. c #C48D79",
"I. c #CE897B",
"U. c #D9867D",
"Y. c #D78B7F",
"T. c #CE967F",
"R. c #F7C14E",
"E. c #FBC44E",
"W. c #807E80",
"Q. c #838183",
"!. c #888688",
"~. c #8A898A",
"^. c #929192",
"/. c #989697",
"(. c #9D9C9C",
"). c #989698",
"_. c #A5A4A4",
"`. c #ADACAC",
"'. c #A8A7A7",
"]. c #B1AFB0",
"[. c #B5B4B4",
"{. c #BBBABA",
"}. c #DC8B81",
"|. c #D89D86",
" X c #CE9780",
".X c #E59C8B",
"XX c #E08D83",
"oX c #DFA68C",
"OX c #DAA68B",
"+X c #E1A78D",
"@X c #EAA28E",
"#X c #E0AA8E",
"$X c #E4AD91",
"%X c #E9AD92",
"&X c #ECA791",
"*X c #EDB496",
"=X c #EFB598",
"-X c #F4B499",
";X c #F5B99B",
":X c #FABE9F",
">X c #F0AD95",
",X c #FBBFA0",
"<X c #FDC1A1",
/* pixels */
"                                                                                                                                ",
"                                                                                                                                ",
"                                                                                                                                ",
"                                                                                                                                ",
"                                                                                                                                ",
"                                                                                                                                ",
"                                                                                                                                ",
"                                                                                                                                ",
"                                                                                                                                ",
"                                                                                                                                ",
"                                                                                                                                ",
"                                                                                                                                ",
"                                                                                                                                ",
"                                                                                                                                ",
"                                                                                                                                ",
"                                                                                                                                ",
"                                                                                                                                ",
"          X Y e e                 .     . . . . . . . . . . . X . . X . . . . . . . . .     .               * i p -             ",
"          Y (._.^.w             h d.9 . . ^ w.w.q.q.q.q.w.w.w.w.w.w.e.w.w.w.q.q.q.2.n X . 8 -.h           X ) _.'._ *           ",
"          R ~.].{.~.*         8 =.R.Z $ X D.<X<X,X,X-X-X-X-X-X-X-X-X-X-X-X-X-X>X>X.X<.. > J J.I ,       . E [.{.(._ -           ",
"          W W.~.[.{.' O     @ g.R.E.z.} X D.,X,X,X-XU.U.U.U.U.U.}.U.U.U.U.U.U.U.}.}.<.X *.R.E.M.| X   . c `.{.(.W.` e           ",
"          - _ W.^.[.{.) X     m $.M.D < . z / / K G v v x x x v v x x x x x x x x v t . j =.m.} a   . u _.{._.Q.[ Y .           ",
"          . w ' W.).{.[.E .   . a O., . . . . = 4 ; ; = % % % % % = % % % = = = % . . . . , O.a .   w ).{.`.Q.[ T X             ",
"            . i ] W.(.{.`.p .     +       . t OX#X#X#XI.i.i.i.i.i.i.r.r.i.i.i.a.u.3 .       +     * ~.{.].!.[ W O               ",
"              . Y [ W._.{._.i .           . r ;X,X,X,X>X@X@X@X@X.X@X.X@X@X.X}.U.p.5 .           O ] {.].~.[ ) *                 ",
"                X T [ Q.'.{.).w           . r =X:X;X:X:X:X:X:X:X,X,X:X:X:X-XXXp.u.3 .         X ) {.[.^.W._ -                   ",
"                  O W [ !.].{.~.;         . r =X:X:X:X:X<X:X:X<X,X,X,X,X&XU.U.<.% X .       . E [.{.).W.' w .                   ",
"                    * ) W.~.[.{.{ O       . r =X|.L.P.D.L.P.D.L.L.L.L.L.t.7.7.<.v % .     . Y `.{.(.W.] i .                     ",
"                      - _ W.^.[.{.) O   . . y =Xt.,.,.,.,.,.,.,.,.,.,.,.,.<.,.7.p.5 .   . u _.{._.W.] p .                       ",
"                      . w ' W.).{.[.Y . m 8 r =X=X%X%X%X$X%X$X%X*X$X%X%X%X%X%X+Xp.3 & & * ).{.'.Q.W.T X                         ",
"                        . i ] W.(.Q.q ..N.6 r =X:X:X:X:X:X:X:X:X:X:X:X:X:X:X:X&Xp.3 0 g.6 E _.!.W.W O                           ",
"                          . p ] T 1  .s.8 X r #X;X;X=X;X;X;X;X=X=X;X=X;X;X;X;X@Xp.3 X ..h.d u ` ) *                             ",
"                            X w 6 +.+., O * X t ! 1.1.1.1.1.1.1.1.1.1.1.1.1.1.y.p.5 . + N j.g 2 ;                               ",
"                            . 7 s. .6 &.I . O b 3.e.0.0.0.e.e.e.0.0.e.e.e.0.0.t.p.5 > f.f g l.N .                               ",
"                          . f j.} . M B.K.8 r *X:X;X;X;X;X;X;X;X;X;X;X;X;X;X;X@Xp.3 j Z.#.X 7 h...+                             ",
"                          : s.B .   o X.B.d r ;XP.1.4.4.4.1.4.4.1.4.1.4.4.4.4.y.p.5 d l.7     6 s.N .                           ",
"                          X : .       $ +.d 2 w.e.9.9.9.9.9.9.9.9.9.9.9.9.9.9.t.p.3 6 d .       + +                             ",
"                                        : $ . . 6.;X:X;X:X;X;X;X;X:X;X:X:X;X:X@Xp.5 . .                                         ",
"                                          . . . q / =X:X<X<X<X<X:X:X:X:X<X:X:X&Xp.5 .                                           ",
"                                          . o t 4 r |.oXoXoXoX#X+X+X+X+X+X+X+X|.p.5 .                                           ",
"                                          . y #Xq.~ >.,.~ ! P ! ! ! ! >.,.,.>.4.p.5 .                                           ",
"                                          . r =XOX XP.>.y K U F C A B 9 ^ L.T.T.p.5 .                                           ",
"                                          . r ;X<X=XF.d.M H.Z.V.V.c.k.h %.5.%X@Xp.5 .                                           ",
"                                  .       . r =X<XOXU *.G G.V.V.V.c.k.h ..F u.U.p.5 .       .                                   ",
"                                h &.8 . . . % G K b J H y G.V.V.V.c.k.7 d V l v x @ . . . 8 $.z                                 ",
"                              1 P J.k X . = q 2 2 2 A o.q A.Z.V.b.c.h.6 f A 2 2 2 4 % . & m J.S $                               ",
"                            + g.R.R.z.} X 6.*X%X%X$XD.@.F 0 H.C.c.h.d C d.S.%X$X#XU.>.X *.J.E.M.| X                             ",
"                              J ;.m.} s X D.<X,X<X:X&Xy.P l M  . .k l P 5..X@X@X.XXX<.X h $.m.X.g                               ",
"                              . a :., . . q.$XoXoXOXt.i.r.r.L B N n r.r.i.r.r.r.r.a.>.. . , :.a .                               ",
"                                  :     . % 4 4 2 ; = = = = @ %.@.@ % = = = = = = = @ .     :                                   ",
"                                          . . . . . . . . . * f.s.+ . . . . . . . . . .                                         ",
"                                                            H I S d                                                             ",
"                                                          y U C V N 7                                                           ",
"                                                                                                                                ",
"                                                                                                                                ",
"                                                                                                                                ",
"                                                                                                                                ",
"                                                                                                                                ",
"                                                                                                                                ",
"                                                                                                                                ",
"                                                                                                                                ",
"                                                                                                                                ",
"                                                                                                                                ",
"                                                                                                                                "
};
