/* XPM */
static char *exit1676875858[] = {
/* columns rows colors chars-per-pixel */
"64 64 184 2 ",
"   c None",
".  c #020101",
"X  c #0E0A05",
"o  c #0B0303",
"O  c #1A0606",
"+  c #120C06",
"@  c #150E08",
"#  c #171009",
"$  c #1C130A",
"%  c #22160C",
"&  c #2B130D",
"*  c #251A0E",
"=  c #2B1D0E",
"-  c #2C1F11",
";  c #27200D",
":  c #2C230F",
">  c #2E2111",
",  c #332413",
"<  c #382614",
"1  c #342911",
"2  c #3B2B14",
"3  c #3E3313",
"4  c #440F0F",
"5  c #4D1010",
"6  c #501713",
"7  c #482F14",
"8  c #432F19",
"9  c #422717",
"0  c #562619",
"q  c #4E3417",
"w  c #4B3C17",
"e  c #4A341C",
"r  c #473818",
"t  c #523C17",
"y  c #523719",
"u  c #553C19",
"i  c #5C3F1E",
"p  c #513217",
"a  c #593F22",
"s  c #563C20",
"d  c #4D4319",
"f  c #554B17",
"g  c #56421A",
"h  c #5A4219",
"j  c #574C1B",
"k  c #594D1C",
"l  c #5D521D",
"z  c #62461D",
"x  c #6C471D",
"c  c #644B1D",
"v  c #6D4A1F",
"b  c #734C1F",
"n  c #62561E",
"m  c #6B501F",
"M  c #65581F",
"N  c #695B1F",
"B  c #5C4122",
"V  c #5F4F28",
"C  c #5E5221",
"Z  c #634423",
"A  c #664920",
"S  c #6B4B25",
"D  c #684B29",
"F  c #744E21",
"G  c #794F20",
"H  c #645223",
"J  c #6C5222",
"K  c #6D5E21",
"L  c #66562B",
"P  c #6F5629",
"I  c #6A5B29",
"U  c #665922",
"Y  c #735324",
"T  c #7C5222",
"R  c #705F22",
"E  c #785B22",
"W  c #77532B",
"Q  c #7B552A",
"!  c #7E592A",
"~  c #6F6021",
"^  c #706021",
"/  c #7C6A25",
"(  c #73632A",
")  c #7E6B2A",
"_  c #7B602A",
"`  c #776A35",
"'  c #8D1E1E",
"]  c #811F1D",
"[  c #982121",
"{  c #A62424",
"}  c #AB2525",
"|  c #C12728",
" . c #D12B2B",
".. c #815625",
"X. c #855927",
"o. c #855B2B",
"O. c #8A5D2C",
"+. c #865D30",
"@. c #895E30",
"#. c #86642A",
"$. c #8E612E",
"%. c #866F2A",
"&. c #8D6B2A",
"*. c #91622F",
"=. c #906D2B",
"-. c #877227",
";. c #8B7627",
":. c #867228",
">. c #8C7729",
",. c #8D782A",
"<. c #9B762E",
"1. c #957E2C",
"2. c #95742D",
"3. c #8F6332",
"4. c #886832",
"5. c #936532",
"6. c #976835",
"7. c #996935",
"8. c #976E3A",
"9. c #996E3A",
"0. c #877535",
"q. c #9D7B32",
"w. c #9A713C",
"e. c #987A34",
"r. c #8C7F43",
"t. c #9D842E",
"y. c #94833F",
"u. c #9E8530",
"i. c #A78C31",
"p. c #A98D31",
"a. c #B48A37",
"s. c #B58C39",
"d. c #AC913C",
"f. c #B49634",
"g. c #B69834",
"h. c #BE9339",
"j. c #B4983C",
"k. c #C1953A",
"l. c #C6993C",
"z. c #C99B3E",
"x. c #C2A239",
"c. c #CEAB3C",
"v. c #C3A237",
"b. c #D1AD3C",
"n. c #D5B03E",
"m. c #8E8144",
"M. c #8D804C",
"N. c #978746",
"B. c #958848",
"V. c #998A4A",
"C. c #9F8F51",
"Z. c #B89B43",
"A. c #B59943",
"S. c #AB9C5D",
"D. c #A2935B",
"F. c #D6A542",
"G. c #D9A742",
"H. c #D1A649",
"J. c #D2B147",
"K. c #C0AB5B",
"L. c #E6B147",
"P. c #E9B346",
"I. c #E4B34D",
"U. c #ECB649",
"Y. c #EFB848",
"T. c #E3BF4A",
"R. c #F4BC4A",
"E. c #F9BF4C",
"W. c #EBB950",
"Q. c #E2B451",
"!. c #F1BF54",
"~. c #C2B167",
"^. c #C5B771",
"/. c #C7B872",
"(. c #C8B974",
"). c #E4C04B",
"_. c #E8C34D",
"`. c #FEC34E",
"'. c #FDC552",
"]. c #F7DF7E",
"[. c #E6D482",
"{. c #FAE180",
"}. c #FAE691",
"|. c #FCE993",
/* pixels */
"                                                                                                                                ",
"                                                                                                                                ",
"                                                                                                                                ",
"                                                                                                                                ",
"                                        . o . .                                                                                 ",
"                                        . 2 S s @                                                                               ",
"                                        , W 7.5.8 *                                                                             ",
"                . X @ @           # @ * @.7.7.6.6.8 +     # @ @ o                                                               ",
"                . s @.Q @ . . . o a @.@.7.7.7.7.6.5.B . o B @.W +                                                               ",
"                  , a 6.D Z Z Z Z O.7.7.7.7.7.7.7.*.W Z B @.Q ,                                                                 ",
"                    - D 7.7.7.7.7.5.*.6.7.7.7.6.O...X.7.9.W e .                                                                 ",
"                      @ Q 5.7.7.7.X.X.6.7.7.7.5.T ..O.6.@.< .                                                                   ",
"                        # S 3...5.X.X.6.7.7.5.T G O.7.@.*                             l l l l l l l l                           ",
"                          , s O.O.T ..O.6.O...T *.7.W ,                             r.^.^.^.^.^././.S.l                         ",
"                            , Z y x b ..@.....X.S Z e .                           f N.].].].].].].{.K.l                         ",
"                              . O p b x x S G W & o .                             C %.c.b.b.b.b.b.b.i.l                         ",
"                              O { 5 + + + + + & } 4 .                             l M ~ ~ ~ ~ ~ ^ ^ N l                         ",
"                              O | } ' ' ' ' ' [  .5 .                             f / f.f.f.f.f.f.f.t.l                         ",
"                            * 9 ] ' ' ' ' ' ' ' ' 0 >                             k / g.f.f.f.f.f.g.1.k                         ",
"                          + 8 +.* + + + @ # + + # S D @                           k n ~ ~ ~ ~ ~ ~ ~ N l                         ",
"                        o a o.T v T Q x o.+.Q S o.6.5.W #                         j :.b.n.b.c.n.b.b.i.l                         ",
"                      @ a T X.T O.6.*...6.7.*.T X.*.7.5.D ,                       k ~ ,.;.;.,.;.;.;./ l f f f f f f             ",
"                    * 8 3.o.T O.7.7.*.O.6.7.*.X.b *.7.7.7.s -                     k K >.;.;.;.;.;.;./ M m.B.B.B.B.B.m.          ",
"                  + 8 7.7.o.o.6.7.7.7.7.7.7.7.5...*.7.7.7.9.Z o                   k :.b.b.b.b.b.n.n.i.( [.|.}.}.}.|.~.l         ",
"                . B 5.7.7.6.6.7.7.7.7.7.7.7.7.6.Q *.6.7.7.7.Z X d l l l l l H     l n ~ ~ ~ ^ ~ ~ ^ N R J.).).).)._.j.l         ",
"              + B @.7.7.7.7.6.7.7.7.7.5.J o.7.6.$.5.7.7.7.7.@.B > M.(.^./.(.S.C   j / f.f.f.f.f.f.f.1.n :.;.;.;.;.>./ l         ",
"            * 8 5.7.7.7.7.6.7.7.7.7.5.o.&.o.+.7.7.7.6.7.7.7.7.@.# C.{.].].{.K.l   k / f.f.f.f.f.f.f.1.U :.>.;.>.>.>./ l         ",
"          . < 7.6.7.7.7.7.7.7.7.7.7.Q c L.&.A 7.6.7.7.7.7.7.7.@.* :.c.b.b.n.p.l   k U ~ ~ ~ ~ ~ ^ ^ K K x.b.b.b.b.n.i.l         ",
"          . < 7.7.7.7.7.7.7.7.7.7.7.Q c P.&.A 6.7.7.7.7.7.7.7.7.+.3 2 K ^ ^ K C   j :.b.b.b.b.b.b.n.p.n ~ ~ ~ ~ ~ ~ N l         ",
"          e W 7.7.7.7.7.7.7.O.z A A h c L.&.t A v O.7.7.7.7.7.7.7.> 3 j.Z.Z.1.l   j ~ >.;.;.;.>.;.;./ N p.g.f.f.f.f.1.l         ",
"        . Z 9.7.7.7.6.7.7.o.o.%.&.&.&.<.U.s.&.&.&.#.! ! 6.7.7.7.7.a B u.A.j.1.l   j ~ >.;.>.>.,.>.>./ N p.g.f.f.f.f.1.l         ",
"        @ S 7.7.7.7.7.6.5.Y <.`.P.L.P.I.'.Q.I.I.W.e.H Y 3.r.9.7.7.r.D % I ( ( L   H 0.c.n.n.F.b.b.n.p.l K ^ ~ ~ ~ ^ K l         ",
"      # ..*.7.7.7.7.7.5.z a.R.P.E c c _ W.e.H ! Q.W.I.H.P 4.w.9.9.$.a > h.J.A.L   L I ~ ~ ~ ~ ~ ~ ~ U ~ x.b.b.b.b.b.i.l         ",
"      + O.7.7.7.7.7.7.*.i k.n.&.o.! S A Q.=.h ! 0.F.'.I.A o.w.9.@...y O ) ,.) l f C H C C t.f.f.g.g.1.U -.,.,.,.,.,./ l         ",
"      + ..5.7.7.7.7.7.*.u k.k.u $.9.! c L.&.A 5.u k.`.L.c Q 5.O.....S < 3 ` V.V.V.V.V.V.B.d.f.f.f.g.1.n -.;.,.,.>.>./ l         ",
"      $ x $.7.7.7.7.7.*.u k.z.S $.7.! c L.&.c 5.z a.P.F.c ! *.....O.7.+.@ D.|.}.}.}.}.}.}.B.l ~ ^ ^ U K v.b.b.n.b.b.p.l         ",
"    = b ......*.7.7.7.*.g h.E.b.m o.Q c L.&.A 7.5.Y c c t ! 7.5.5.7.7.@.# e._.T.T.T.).).).,.:.c.b.b.i.n K ~ ^ ^ ~ ~ K l l l C   ",
"  . = T b ......X.5.7.5.o.#.a.R.l.#.h k L.&.A 7.7.o.Q o.! 5.7.7.7.7.7.@.@ k ;.;.>.>.;.;.;.K ~ >.;.;./ N p./ ` ^./.^.^./.^.^.S.l ",
"  . = T ..b ..b ..O.5.7.7.c &.`.`.a.&.<.U.&.h ! 6.7.7.7.7.7.6.7.7.7.7.@.# k ,.>.>.>.;.;.>.K ~ ;.,.>./ N p./ y.].{.].].].].{.K.l ",
"  . = Q b ......b b X.7.6.S &.L.P.R.`.E.`.<.c m $.5.5.7.7.7.7.7.7.7.7.O.@ -.b.b.b.F.b.c.J.:.:.c.b.n.p.n N M -.b.b.c.n.b.b.b.i.n ",
"  . , 6.6.5.O.T T T T ..5.5.o.c c z.`.E.`.Y.P.F.S g F 7.7.7.7.7.7.7.7.o.# r ^ R R R K ^ ~ U n ~ ~ ~ N ~ x.:.U ~ ~ ~ K ~ ^ ^ K C ",
". e Q 7.7.7.5.$.5.$.$.$.7.7.3.! ! #.&.<.Y.`.`.E.z.k.q.S 5.7.7.7.7.7.7.5.D 1 f f.f.f.f.f.f./ / f.f.g.1.M :.~ / f.f.j.j.f.f.f.1.C ",
". i 5.7.7.7.7.7.7.7.7.7.7.7.7.7.7.Q h c L.G.h.l.E.`.h.g 5.7.7.7.7.7.7.7.*., 3 f.j.f.f.f.f./ / f.f.j.1.n :.~ / g.f.f.f.f.f.g.1.H ",
". y X.5.7.7.7.7.7.7.7.7.5.5.3.5.7.7.Q c L.=.w S b.R.l.m $.5.6.7.7.7.7.*.T = ; ^ R ^ ^ ^ ~ n U ~ ~ ~ U K x.:.n ~ K ^ ^ ^ ~ ^ U l ",
". p b ..5.7.6.7.7.7.7.*.z h g c 5.7.Q c L.=.z $.v l.`.F.m X.7.7.7.7.*.T G = r c.b.b.c.b.c.:.:.c.b.b.i.n ~ n :.c.b.c.n.c.b.n.i.l ",
". p ....X.5.7.7.7.7.7.*.h 2.h.a.Y O.! c L.&.A 5.o.#.a.L.c ! 7.7.7.7.*.T G = 1 ;.>.>.>.>.>.~ K ,.;.>./ K p./ ~ >.>.>.>.>.>.,./ n ",
". p b ..b X.*.$.7.7.7.*.h h.'.Y.c ! Q c L.=.A 7.7.c &.L.c ! 7.7.O.*.o.T G = 1 >.>.>.>.>.,.K K ;.>.;./ M i./ ~ >.>.>.>.>.>.,./ l ",
". y ..T ..T ....*.*.6.$.h h.`.P.E o.Q c L.&.z 5.$.Y <.P.c Q 7.*...G G G T = r b.b.b.b.b.b.:.:.b.b.n.i.n ~ n :.b.b.b.b.b.b.n.p.l ",
". q T T *.6.5.*.....X.5.h h.`.`.P.$.t c L.=.t h h a.R.L.c ! *.T T T T T G = ; ~ ^ ~ ^ ^ R U n K ~ ^ N K x.:.n ~ ~ ^ ~ ~ ~ ~ N l ",
". q T ..5.7.7.7.*.*.*.6.o.#.&.<.R.n.k.z.R.G.k.k.k.U.G.&.! 5.6.$.$...G T G = 3 f.f.f.f.f.f./ / f.f.f.t.n :.~ / g.f.f.f.f.g.g.1.n ",
". p T T *.5.7.7.6.7.7.6.7.Q z Y a.h.k.z.R.G.k.k.k.k.q.S 5.7.7.7.$...T G T = 8 f.f.f.f.f.f./ / f.f.f.1.n :.~ / f.f.f.f.f.f.f.1.l ",
". y T T b O.6.7.6.7.7.7.7.7.7.3.z g g c L.=.t h h h Y 7.7.7.7.5.T T T G G = = N ~ ~ ~ ~ ^ n U K ~ ~ N N x.:.n ~ ~ ~ ~ ~ ~ ~ N n ",
". y T T T T O.6.7.7.7.7.7.7.7.6.5.5.W c L.&.Z 5.$.*.5.7.7.7.7.6...T T G b > w b.b.b.b.b.c.:.:.b.b.n.i.n K n :.c.b.b.b.b.b.n.p.n ",
"  = 7 T T T T O.6.7.7.7.6.7.7.7.7.7.Q c P.&.c 7.7.7.7.7.7.7.*.X.T T T b < 1 k ;.;.;.;.;.,.K K ,.;.;./ N p./ ~ >.,.;.,.,.;.;./ l ",
"  . = T G T T T $.$.*.7.7.7.7.7.7.7.3.Y s.#.T 7.7.7.7.7.7.5.o.T T T T x X k 1.;.;.;.;.,.;.~ ~ ;.>.;./ N p./ ~ >.,.;.;.;.,.;./ l ",
"    = v F T T G G G X.6.*.6.6.*.6.7.6.5.h o.7.7.7.5.5.6.5.X.T G G T G h # ;.n.b.b.b.b.b.c.:.:.b.n.n.p.n n l :.n.b.b.b.b.b.b.i.n ",
"      $ b b T T T T T T ..T ....5.7.7.6.5.5.7.7.7.X.T ..T T T T T T u $ d M ^ ~ ~ ~ ~ ~ ~ M U K ~ ~ K     l n K ~ ~ ~ ~ ~ ~ N n ",
"        = z T T G T T T T G T T ..o.X.o.X.o.X.X.X...T T T G T T G q =   k 1.f.f.f.f.f.f.f./ l             k / f.f.f.f.f.f.g.1.l ",
"        . < q y G T T T T T T T T T T T T T T T T T T T T ..x q q =     l t.f.f.f.f.f.f.f.-.                :.f.f.f.f.f.f.f.t.l ",
"            . + z x x x G T G T F T T T T G T G T T b x x x q . .           n l l l l l l                     l l l l l l l n   ",
"                + + + $ x T G G T T T T T T T T G T u + + + +                                                                   ",
"                        = = = : = = = = = = = = = = =                                                                           ",
"                          . . . . . . . . . . . . .                                                                             ",
"                                                                                                                                "
};
