/* XPM */
static char *floor1676875859[] = {
/* columns rows colors chars-per-pixel */
"64 64 256 2 ",
"   c black",
".  c #010101",
"X  c #020202",
"o  c gray1",
"O  c #040404",
"+  c gray2",
"@  c #060606",
"#  c #070707",
"$  c gray3",
"%  c #090909",
"&  c gray4",
"*  c #0B0B0B",
"=  c #0C0C0C",
"-  c gray5",
";  c #0E0E0E",
":  c gray6",
">  c #101010",
",  c #111111",
"<  c gray7",
"1  c #131313",
"2  c gray8",
"3  c #151515",
"4  c #161616",
"5  c gray9",
"6  c #181818",
"7  c #191919",
"8  c gray10",
"9  c #1B1B1B",
"0  c gray11",
"q  c #1D1D1D",
"w  c #1E1E1E",
"e  c gray12",
"r  c #202020",
"t  c gray13",
"y  c #222222",
"u  c #232323",
"i  c gray14",
"p  c #252525",
"a  c gray15",
"s  c #272727",
"d  c #282828",
"f  c gray16",
"g  c #2A2A2A",
"h  c gray17",
"j  c #2C2C2C",
"k  c #2D2D2D",
"l  c gray18",
"z  c #2F2F2F",
"x  c gray19",
"c  c #313131",
"v  c #323232",
"b  c gray20",
"n  c #343434",
"m  c #353535",
"M  c gray21",
"N  c #373737",
"B  c gray22",
"V  c #393939",
"C  c #3A3A3A",
"Z  c gray23",
"A  c #3C3C3C",
"S  c gray24",
"D  c #3E3E3E",
"F  c #3F3F3F",
"G  c gray25",
"H  c #414141",
"J  c gray26",
"K  c #434343",
"L  c #444444",
"P  c gray27",
"I  c #464646",
"U  c gray28",
"Y  c #484848",
"T  c #494949",
"R  c gray29",
"E  c #4B4B4B",
"W  c #4C4C4C",
"Q  c gray30",
"!  c #4E4E4E",
"~  c gray31",
"^  c #505050",
"/  c #515151",
"(  c gray32",
")  c #535353",
"_  c gray33",
"`  c #555555",
"'  c #565656",
"]  c gray34",
"[  c #585858",
"{  c gray35",
"}  c #5A5A5A",
"|  c #5B5B5B",
" . c gray36",
".. c #5D5D5D",
"X. c gray37",
"o. c #5F5F5F",
"O. c #606060",
"+. c gray38",
"@. c #626262",
"#. c gray39",
"$. c #646464",
"%. c #656565",
"&. c gray40",
"*. c #676767",
"=. c #686868",
"-. c DimGray",
";. c #6A6A6A",
":. c gray42",
">. c #6C6C6C",
",. c #6D6D6D",
"<. c gray43",
"1. c #6F6F6F",
"2. c gray44",
"3. c #717171",
"4. c #727272",
"5. c gray45",
"6. c #747474",
"7. c gray46",
"8. c #767676",
"9. c #777777",
"0. c gray47",
"q. c #797979",
"w. c gray48",
"e. c #7B7B7B",
"r. c #7C7C7C",
"t. c gray49",
"y. c #7E7E7E",
"u. c gray50",
"i. c #808080",
"p. c #818181",
"a. c gray51",
"s. c #838383",
"d. c #848484",
"f. c gray52",
"g. c #868686",
"h. c gray53",
"j. c #888888",
"k. c #898989",
"l. c gray54",
"z. c #8B8B8B",
"x. c gray55",
"c. c #8D8D8D",
"v. c #8E8E8E",
"b. c gray56",
"n. c #909090",
"m. c gray57",
"M. c #929292",
"N. c #939393",
"B. c gray58",
"V. c #959595",
"C. c gray59",
"Z. c #979797",
"A. c #989898",
"S. c gray60",
"D. c #9A9A9A",
"F. c #9B9B9B",
"G. c gray61",
"H. c #9D9D9D",
"J. c gray62",
"K. c #9F9F9F",
"L. c #A0A0A0",
"P. c gray63",
"I. c #A2A2A2",
"U. c gray64",
"Y. c #A4A4A4",
"T. c #A5A5A5",
"R. c gray65",
"E. c #A7A7A7",
"W. c gray66",
"Q. c #A9A9A9",
"!. c #AAAAAA",
"~. c gray67",
"^. c #ACACAC",
"/. c gray68",
"(. c #AEAEAE",
"). c #AFAFAF",
"_. c gray69",
"`. c #B1B1B1",
"'. c #B2B2B2",
"]. c gray70",
"[. c #B4B4B4",
"{. c gray71",
"}. c #B6B6B6",
"|. c #B7B7B7",
" X c gray72",
".X c #B9B9B9",
"XX c gray73",
"oX c #BBBBBB",
"OX c #BCBCBC",
"+X c gray74",
"@X c gray",
"#X c gray75",
"$X c #C0C0C0",
"%X c #C1C1C1",
"&X c gray76",
"*X c #C3C3C3",
"=X c gray77",
"-X c #C5C5C5",
";X c #C6C6C6",
":X c gray78",
">X c #C8C8C8",
",X c gray79",
"<X c #CACACA",
"1X c #CBCBCB",
"2X c gray80",
"3X c #CDCDCD",
"4X c #CECECE",
"5X c gray81",
"6X c #D0D0D0",
"7X c gray82",
"8X c #D2D2D2",
"9X c LightGray",
"0X c gray83",
"qX c #D5D5D5",
"wX c gray84",
"eX c #D7D7D7",
"rX c #D8D8D8",
"tX c gray85",
"yX c #DADADA",
"uX c gray86",
"iX c gainsboro",
"pX c #DDDDDD",
"aX c gray87",
"sX c #DFDFDF",
"dX c gray88",
"fX c #E1E1E1",
"gX c #E2E2E2",
"hX c gray89",
"jX c #E4E4E4",
"kX c gray90",
"lX c #E6E6E6",
"zX c #E7E7E7",
"xX c gray91",
"cX c #E9E9E9",
"vX c #EAEAEA",
"bX c gray92",
"nX c #ECECEC",
"mX c gray93",
"MX c #EEEEEE",
"NX c #EFEFEF",
"BX c gray94",
"VX c #F1F1F1",
"CX c gray95",
"ZX c #F3F3F3",
"AX c #F4F4F4",
"SX c gray96",
"DX c #F6F6F6",
"FX c gray97",
"GX c #F8F8F8",
"HX c #F9F9F9",
"JX c gray98",
"KX c #FBFBFB",
"LX c gray99",
"PX c #FDFDFD",
"IX c #FEFEFE",
"UX c white",
/* pixels */
" XoX!.~.L.}.&XOX]._._.=X&X-X$XE._.(. X X}.|.@XOXQ.^.K.'.}.]._.OXOX].[.W.W.G.}.#XoX XY.U./.`.]. X X X{.{.[.{.}.D.E.[.oX#X{.R.!.W.",
"XX@X[.[.T.XX*X+X}.[.[.>X-X;X-X_..X{.#X#XXXoX*X&X[.[.W.|..X}.[.$X$X@XOX_.'.Q.oX%X@XOX_.(.].|.OX#XoX+X.X.X.XOX+XU.(.oX#X&XXX!.(.~.",
"XX$X>X@XF.~.~.^.(.!.(.=X%X%X&X|.+XoX;X;X@XOX:X;X#X+X^.{.{.`.!..XXX;X=X|.{.{.'.T._.`.@X@X|.@X;X#X/.(.~.Q._.%X$XE.'.oXXX{.!.D.^.R.",
"oX+X$XoXP._.`._././.`.%X%X#X*XOX#XOX%X+X.XoX-X=X@X#X|.XX+X'.W.|.oX*X&X].|.{.'.E.)._.+X+X}.XX@X@X'.|.[.|.XX&X#XU.(.@XoX{._.U.}.[.",
"W.R.E.!.K.).'./.Y.I.Y.(._._.+X*X#X X^.H.K.E..XXXXXOXOX@X#X'.T.!./.].].[.{.^.!.K.(.(..X XE.Y.U.`.[.XX X-X*XoX.XT./.].].^.).!.#X@X",
"!.^.W.`.'.oX@XXX'..XoXOXoX). XoX+X X{.!.).].].{.XXoXXXXXXX+X X.XoX#X$XoXXX/.!.G.^./.'.'.E.R.U.].}.@X@X*X*XOXXX/.{. X X{.{.'.#XOX",
"L.Q.R.'.}.$X*X#X|.>X>X#XoXK.E.E.]. X`.Q.'.'.L.T.`._.Q.!.^.+X@XOXOX*X&XoX|.U.R.J.P.K.H.I.T.R.U.].}.@X@XOXoX].].~.].|.}.].[.'.@XoX",
"!./.R.`.|.XX}.}.[.@X%X*X&X]..XoXoX{.].^.}.}.`.[.|.}.^.(.Q.@X$X+X@X|..X.X+X.X|./.^.E.)._.`.'.!. XoX;X<X=X$X|.[.~.'.|.}.'.'.]. X[.",
"Q.^.Q.`.{.{.^.^.!.{.|.*X*X{.XX.XoX{.[.^.[.[.`.].[.[.~.^.J.OX%X@X@X~._.}.XXOXXX(.^.E._._.'.].Q.}.|.;X1X&X+X'.).U.~.).).^.!.^.~.T.",
"_.|. XXXoX{.T./.^.|.|.oX$X*X$X|.|.^.[._.'.{.$X#X}. X'.XX.XoX+X|.].R.~.(.oX=X$X.X|.[.%X&X;X%X^. X}.=X;X$XOX X{.U.^.].].).(.^.~.R.",
"`. XoXOXOX[.J./.^..X|.}.#X*X&X+X{.I.`._.'..X#X$X}. X`.OXoX.XoX].'.T.W.R.|.;X#X{.}.{.&X*X:X=X)..X X=X-X*X%X X}.!.`.{.}.].{.'.'./.",
"{.@X<X,X=XOXT.oXXX|..X/./._.).^.^.I.!.^.+XXXoXoX|..X}.$X@X+X@X-X*X[.[.T.^.^. X|.+X+X=X-X+X%X*X&X XXXOX|.].oX.X XOXoX=X;X&XOXOX[.",
"}.#X,X>X=XOX~.oX.XXX@X!.~.)._.`.].).].'.%X#X@X@XXXoX}.@X+XOX$X=X=X{.[.Q.^.Q.|.XX+X+X=X=X@X#X#X%X+XOX+XXX|.OX.X{.OXXX*X;X=X+X#XXX",
"^.}.&X*X-X&X'..X|.$X#XI.T._.{.|.@X@X=X-X>X>X-X;XOX XU.R.G. X+X#X$X}.[.P.K.J.`._.|.}._.'..X+X$X@X%X&XOXOX$X_.(.W.].XX.X}.$X#X-X&X",
"|.#X&X=X&X#X].|.{.$X%X[.}.[.oX%X$XXX&X$X-X=X=X=XOXOX`.'.!.XXoX%X$X].].~.~.W.).'.}.{..XoX#X$X&X%X#X&X@X%X=X'.^.W.].oXXX}.$X#X,X:X",
"#X%XoXOX).'./.|.|.%X%X-X-X'.+X-X%XoX X_.oX X|. X[..XXX.X`.(.!.XX.X`.'.^.).R.T.W.].].OX+X#XOX@XOXQ.}..X-X-XT.K.Z.T.).[.].#X$X2X>X",
"@X$XoXOX`.'.).{.[.$X$X,X<X#X*X%X$X+X X'. X|.XXoX X+X@X*X&XoX[.oXOX%X$X[.XX.X X{.|..XOX+X=X*X#X@X].oX|.&X=X[.`.E._.[.XXoX$X$X1X>X",
"$X*XOXOXW.R.Q.Q.Y.'.{.1X1X$X#X}.|.{.[./.!.!.}. X|.+X@X:X1X+X'.|.XX*X&X'.+X*X#X'.].|.+X$X;X=X}. X'.XX}.}..X}.{.W.)._. X.X X|.-X*X",
"}.XX.X X'.].{.[.)..XOX,X2X5X1X+X@X|.+X+X{.[.$X$XOX$X|.#X#X-X*X*X*X%X=X;X-XXX=X=XoX|.|.}.OX+X}.OX+XoX}. X}.oXOX+X@X#X#X|.XX.X:X-X",
"W.(._.`.'.].].{.)..XoX>X<X9X4XoX@X XOXoX_.`.$X#XOXOX_.|.}.-X-X=X*X&X>X>X-X].*X:XoX'.!.~.[.|..X@X+X@XOX[.).oXOX#X+XoX@XoXoX|.;X=X",
"!./.).].Q.OX*X:X;X2X,X>X,X:X;XXX&X&X#XOX`.(.+X+X X|.E./.~.}.].'. XOX%X;X$X/..X.X].].~.!.T.U.I.(.(._.). X{.|.oX@XOXXX%X%X$X&X>X*X",
"(.`.).'.Y.XX=X>X:X1X<X<X2X&X&X X&X=X+X.X{.].OXXX}.[.U.Q.E._.(./.]. X+X=X#X/.{._.{..X].).U.F.G.W.E.~.^.|.}.}.XX&X#X@X*X%X&X&X>X-X",
"Y.~.(.(.W.'.`.*X;X<X<X}.[./.~.W.|..XoXXX).R.Q.!.!.~.E.[.|.).Y.Y.Q.`.)._.OX#XXX).XXoX$X%X_.).U.^./..X.XOXoXE.E.'.`.W.'.'.;X3X:X#X",
"~.'.`.`.R.(.!.&X;X,X<X[.'.(.(.(..X XOX@X_.Q._._./.~.R.`.`.(.T.^.).{.[.).XX+XOX{.+XXX$X$X].].^._.E.}..XOX@XQ.E.).`.~.[.).&X,X-X#X",
"{.}.[.{.T./.^. X{.[..XL.R.'.|.XX X).`._./.(.%X$X(.).U._.].E.F.OXoX X.XJ._.XXXX|.+XOX.X.X X}.}.|.W.~./._.).!.Q.W.)._.`.!.Q./.+XXX",
"`.'.].|.(.{.].+XXX.XXX).'._. XOXOX}.{.'.`.].$X#X}. X'..X}.).Q.OXoX&X&X).+X=X$X XOX.XoXoX X.X$XOX~.).(.XXoX{.].).{.|.oX X}.[.#XXX",
"[.'.'.}.^.{.].oXXX|.`.[.|.^..XOXoX X_.R.(._.oX|..XXX|.}.Q.^.(.`.{.,X>XOX=X:X#X].(.Q. X|.).XX<XXXK.W.T.OX$X.X}._.}..X+X@XoX{.#XXX",
"{. X'.}./.{.'.XX.X+X@X$X#X!.{..XoX}.[./..X|.oXOX}.+X#X@X+X'.!.`.{.@X&XOX-X1X%X[.).E.{.}.`.|.#XoX~. X.X*X=X@X@X`.[. X+XOX%XoXOX.X",
"/.[.|.|.W.].{.XX.X#X$X-X#XG.E.^.|.XX].~..X}.].|.!. X#XoX#X[.W.Y.R.`. X$X:X3X$X`._.U.Y.!.).'._.'.~.OX@X*X*X+XOX~.(./. X.X#X+X@X@X",
"`.}.(._.!.).E.{.[.{.].{.[.~.}.|.XX}. X{.%X$X|.|.W.{.OX-X>XOX].W.I.~.)._. X X$X@XXX}.^._.OX+X#X+XOX@X+X@XOX:X-X$X#X}. X_.]._.(.Q.",
"'.}.U.!.(.~.H.(././.Q.Q.Q.W.].}.[.(.{.|.@X@X|.{.Y.`.}.*X<XOX[.~.U.U.Y.Y.^.Q.XX#XXX{._._.+X@X@XoXoX@X$X.X{.:X>X#X$X].].T.Y.P.P.S.",
"+X@XOX#X}..X'.'.[.=X;X.X}.!.`.[.'.`.#X@XoX#X.XXX].oXOX%X&X.X/.(.].OX@X X}.R. XXX|.[.R.W.[.OX;X=X$X#X X].(.XX+X=X&X}.|.(.~.G.U.Y.",
".XOX@X#X}.}.).`.{.;X:X X}.E.).].`.).#X#X+X%XXXXX[.XXOX#X#XXX).'.|.OXoX].}.!. XXX[.).U.T._. X:X-X%X@X|.'./.}.XX=X=X X|.^._.W.E.T.",
" XoX}.|._.].).}.|.*X*XXX XR.~.^.]._.{./._.].'.}..X}. XXX].oXoX>X,XOX+X{.OX$X#XoX[./.W.R.W._.[.OXoXXXOX X].^.).OXXX^._.~.@X*X|.^.",
"XX#X[.}.).'.'.XX.X*X=XXXXX'.`.`.{.[.[.(._.]..XOXXX X.XXX].#X%X>X:X$X@X|.#X@X#X+X.X'.).).`.}.{.XX|.+X&X+X X[.{.XXoX/.].].%X;X}.!.",
"^.`.K.J.G.K.H.|.oX{.].W.(.|.'.[.{.~.~.R.Q.(.#XOX].[.R.].].=X:X$X@X{.[.)..XOXOX X X`._.}.|.|.P.]. X=X-X&X+X+X#X`.).G.'.}.;X2X|.Q.",
"]. X).^.Y.R.Y.}.XX{.].E.!.}.[.[.[.~.`.).XXOX-X-X+X@X[.oX|.-X;X=X*X[.}._.XXOXOX.X}._.OX#X*X&X[.@X#X=X;X$XOXXX+X(.'.!..X#X&X$XOX].",
"{. X'.].Y.Y.I.(.^.].[.W.Q./.).Q.W.F._.'.;X:X<X,X&X%XoXOX|.$X$X%X*X'.`.T./.^.^.(.[.{.:X<X4X3X=X-X#X@X+X+XoX(.^.L.W.^..X%X'.L.|.[.",
"'.}.|.}.^.^.T.{.}..XoX_._./.(.~.W.G.)._.XXOXXX@X@X@X|..X`.#X$X&X#X.X+XoX@X$X X^.).].oXoXXX@XoX$X@X=X;X%X@X|.{.~.[.XX-X:X&XXXoX].",
"T.(.[.{.~./.T.}.}.|. X`./.^.(.P.Y.J.~.Q.~.^.R./.}.}.].).I.+X$X+X.X X#X&X*X;X XL.I.T.Q.E.Y.^.(. X.X-X;X&X#X X}.!.{.OX;X1X:X$X@X{.",
"/. X$X$X#X#XXX+XXX X X).^.T.(.).].).`.'._.'.[.|.`._.).|.{. X{.[.].[.{.}..X{.).I.(.(.~./.'.{.).{._.OXoXXX+X/.(..XXX XOX@X+XoX X`.",
"(..X$X+X@X%XOX+XXX.X|.!.Q.D.W.).].`.)._._.].].].~.Q.E.{.[.`.^.~.!._.~.!.(.E.~.W._.^.~.(._._.!.~.T.'._.}.}.Y.E.oX X].{.}.].'.).E.",
"$X%X*X*X+X#X.X#X@X+X@X'._.J.~.'.oXOX{./.-X;X|.[.P.W.W.)._.(.~.W.R.^./.~.).R.{.{.{.`.).~.^.).Q.W.!.`._. XXX`.}.<X-X'.{.`.{.'.`.Q.",
"%X&X&X=XOX#X.X#X@X#X@X{.].I.(.{.OX+X.X'.;X:X|.{.I.Q.Q._._.`.(.W.E.~._.}.}.^.oXoX|.].`.(.(.'.^.^.^.}.}.OX+X{..X<X;X}.XX]..X X'.!.",
".XOX@XXXK.!.W.|. X#X#XoXXXW.[.oX$X&X&XOX+X$X X|.^.^.H.R.Y.{.{./.~./..X4X2X>X;X,X#X|.!.Q.`.`.P._.'.=X<X,X1X-X*X@X+XOX;X>X*XOX'.W.",
"XXOX+XXXL.W.W.|. X%X*X.X|.R.].oX#XOX&X$X#X#X[.|.{.[.P.(./.+X#X}.[.].OX1X<X=X=X;X@X X].`..X X~.{.{.&X*X*X-X$X#XOXOXoX&X*X&X+X}.^.",
"`.[.^.!.V.B.V._.{.*X*XP.I.Q./.^.oX#X*X=X}.`.}..X$XXXU.'.`.-X>X&X#X}. X.XXX_.}.[._./.+XOX@X+X_.}.|.'.~.R.I.^.Q.~.~.Q.^.!.[. XQ.D.",
"'.}.~.'.).(.^.{.'.#X%X).(.(.[.[.$X%X,X<XXX[..XXX+X+X'.@X#X=X=X$X@XOX@X%X+X/.}.{.XX.XOXoXOX$XoX+X}.XX[. X{.].`././.E.'.}.#X#X'.R.",
"~.).R.[.%X$X.X X).).]._./.!.].].OXOX1X3X.X].(.'.]..X.X=X=X;X:X.X}.OX+X%X}.Z.Q.W.oX#X|.{.'. X@XOX(..X XOX+X[.'.H.R.!.{.|.@X#X'.Y.",
"`.[.T.[.=X#X{. X].XX X}. X].@X-X,X,X,X-X#XoX`.`.).|. X&X*X-X=X.X.X&X*X;X#X^._.~. X X}.[.`.OX:X%X_.|.[.OXXX|. X_._.!.{.{.@XOX#XOX",
").[.W.}.=X&X X{.^..X{.[..X[.#X>X1X3X-XXXOX+X!.!.I.`..X&X-X#XoX[.{.&X*X:X&X^./.~.`.)././.~..X,X#X^.(.E..X X|.}.`.'.!.}.}.#X$X;X*X",
"`.'./.|.OXXX_.'./.+X+X.XXXXX*X:X-X#XoX`.OXXX].`.].{.{.+X@X.X'.&X;X<X<X$X@X'.[.{.~.U.(.`.@X$X*X*X@XoX`.`./.].]./.'.'.{.'.|. X+X X",
"~././.{.|.}.~.'.'.@XOXXX.X}.=X1X=X}.`.W.|. X[.'.'.].`..XXX].!.*X-X1X,X.XOX'.'.}.Y.F./._.$X%X$X%X#X.X/.!.U.).(.!.)./._.(.).).|.[.",
"!.'.}.%X2X;X|.|.[.-X:X+X X.X#X&XoX(.^.Y.OX$X3X<XXX.X X-X1X*XOX;X=X-X:X+X|.L.W.R.^.!. XoX,X;X]..X X{.^.`.'.'.{.(.).~.[.}.{.]._.W.",
"~.[..X&X2X*X|.oX|.-X-X@XoXOX$X$XoX/.~.U.oX$X3X2X+XOX}.:X1X&XoX-X=X-X:X@X.XU.~.W./.`.XX+X,X=X^.{..X|./._.'.].[.{.}.}.oXXXXX|.].!.",
"E.'.%X%X X.X]..X.X}.'.(.{.%X&X&X#X[.'.E.!._.OX$X,X-X[.#X&X.X).^.).$X@X}..X_.XX.X|.oX*X*XXX.X(. XoX{.!.Q.Y.E._.<X,X=X:X&X%X$X$XXX",
"!.[.$X#X.XOX}.$X$XXX}.(.[.+X$X$X$XoX[.W.!._.+X$X-X*X[.@X#X{./.[.|.#X@X|.OXXX@X X XXX&X*X#X+X/.}.oX.X`.'.).`.}.-X;X-X-X#X&X#X@X.X",
"I.~.}.'.'.}.{.*X-X+X XU.I.I.].$X@X*X_.J.J.R..X X'.'.Y.(././.).OXoX_.'.`.#X2X$X].'.~..XXX&X#X^././.}.{..X|.[.}._. X@XOX(.{.].'._.",
"Q.).}.XX#X=X&X;X*X%X+X}.{.~..X&X$X$X].E.Y.Q. X.X[.].^.).~.{. XoXoX`.'.`.XX%X@X].(.!..XoX%X%X|.}.(. X{.#X$X=X*X[. X.X X_.[.'.[.`.",
"R.(.~.XX%X:X<X=XXX@XOX+X$XQ.{.OXoX|._.T.T.E..X|.~.~.E.~.~.{.[..X.X`._.)._.'.`.Y.W.!.|.XX&X&X X|.Q._._.&X=X5X2X^./.W.R.Q.Q.I./.E.",
"W.'.OX&X:X,X&X%XXX@X@X,X,X@X%XoX+XOXOX}.}..X].}..XOX+XOX'.[.].[.{..XOX%XoX).].^.{.|.{. X$X#X}..X{.}._.XXOX1X<X+X.XQ.`.[.|.}.OXoX",
"E.].#X;X1X:XXXXX{.#X&X2X2X-X*XXXoXOXoX|.|.oXI.Q.XX%X*X+X'.{.|.!.!. XOX&XoXU./.^.}.}./.)..X X/.[.].].~.(.`.-X;XoX.XR.].'..X|.#XOX",
"~.'.^.`.'._.).}.'. X X%X$X}.|.).{.].@X+X=X*XT.!.].oX&XOX(.`.(.oXOX=X:X3X,X+X@X X}._.}. X$X@X^.].'.{..X'.(.%X%X.X.X X-X1X>X=X$X X",
"Q./.G.U.U.P.U.^.~.(.).{.}.~./.I.!.W..XXX&X#XR.E.W.[.OX{.E.W.U.}..X%X=X,X:XOXoX[.).Q.`.{.@XXXL._.].'.[.^.Y.XXXX X{.[.=X<X;X%XXX_."
};
