/* XPM */
static char *computer1676875858[] = {
/* columns rows colors chars-per-pixel */
"64 64 149 2 ",
"   c None",
".  c #020101",
"X  c #080707",
"o  c #0D0C0C",
"O  c #110F0F",
"+  c #120810",
"@  c #0C191B",
"#  c #071619",
"$  c #151313",
"%  c #181616",
"&  c #1A1817",
"*  c #1C1A1A",
"=  c #211E1E",
"-  c #31152E",
";  c #132D31",
":  c #1B363A",
">  c #143034",
",  c #252222",
"<  c #292626",
"1  c #322E2E",
"2  c #242F31",
"3  c #352F30",
"4  c #253032",
"5  c #363131",
"6  c #393334",
"7  c #3E3939",
"8  c #433D3E",
"9  c #44413F",
"0  c #214E55",
"q  c #235056",
"w  c #2B545A",
"e  c #285B62",
"r  c #385B60",
"t  c #2E626A",
"y  c #464141",
"u  c #494343",
"i  c #4E4A49",
"p  c #534E4E",
"a  c #564A51",
"s  c #4B5052",
"d  c #565151",
"f  c #5C5555",
"g  c #5F5758",
"h  c #5F5A5A",
"j  c #645C5C",
"k  c #674761",
"l  c #685F60",
"z  c #4A6165",
"x  c #46777E",
"c  c #676161",
"v  c #6A6363",
"b  c #6E6867",
"n  c #636D6F",
"m  c #6F6969",
"M  c #726A6A",
"N  c #716667",
"B  c #76716F",
"V  c #777070",
"C  c #7C7373",
"Z  c #7F7877",
"A  c #7C7979",
"S  c #837B7B",
"D  c #8A7E7E",
"F  c #143D81",
"G  c #1F538F",
"H  c #245C8F",
"J  c #215691",
"K  c #266499",
"L  c #2B699B",
"P  c #2F75A5",
"I  c #3178A6",
"U  c #337CA8",
"Y  c #883E82",
"T  c #904789",
"R  c #3F8E97",
"E  c #3E8E98",
"W  c #3C8791",
"Q  c #3E929C",
"!  c #3683AD",
"~  c #3783A9",
"^  c #3887B0",
"/  c #418B95",
"(  c #428F98",
")  c #428791",
"_  c #40949D",
"`  c #439DA8",
"'  c #419BBE",
"]  c #4EB1BC",
"[  c #50B3BE",
"{  c #44A5C5",
"}  c #44A8C7",
"|  c #46AACA",
" . c #49AECA",
".. c #4AA7C4",
"X. c #49B1CF",
"o. c #4EB4C0",
"O. c #51B3CC",
"+. c #4FBCD4",
"@. c #53BCD3",
"#. c #52C4D5",
"$. c #5AC5D2",
"%. c #54C9D5",
"&. c #5CCADD",
"*. c #58D0DD",
"=. c #56CEE1",
"-. c #57D0E2",
";. c #59D4E5",
":. c #5CDAE7",
">. c #5CDDEB",
",. c #60D6E6",
"<. c #63DDEB",
"1. c #5DE2EF",
"2. c #5FE5F1",
"3. c #63E0ED",
"4. c #61E5F2",
"5. c #60E8F5",
"6. c #8D8282",
"7. c #908383",
"8. c #958788",
"9. c #958B8B",
"0. c #9C8F8F",
"q. c #9F9191",
"w. c #9E9897",
"e. c #A29494",
"r. c #A59999",
"t. c #A99B9B",
"y. c #AEA2A1",
"u. c #B1A4A4",
"i. c #B1A9A7",
"p. c #B4AAA9",
"a. c #B9AEAD",
"s. c #BAB1AF",
"d. c #BDB2B1",
"f. c #C0B6B5",
"g. c #C2B8B7",
"h. c #C6BCBB",
"j. c #C8BFBD",
"k. c #C9C0BE",
"l. c #CDC2C1",
"z. c #D1C5C5",
"x. c #D3C8C7",
"c. c #D6CACA",
"v. c #DACECE",
"b. c #DED2D2",
"n. c #E2D5D5",
"m. c #E6D9D9",
"M. c #EADDDD",
"N. c #EEE1E1",
"B. c #F1E3E3",
/* pixels */
"                                      . . . . . . . . .                                                                         ",
"                              . . . u w.w.q.0.q.w.0.0.9.% . . . . . . . . . . . .                                               ",
"                            7 p s p m q.q.x.B.N.N.N.N.v.c p d s p p p d p p p p p 6                                             ",
"                      = * * v M.M.N.r., = 9.x.x.m.M.M.M.M.m.M.M.M.M.M.m.M.M.M.M.m.c * = *                                       ",
"                . . d l.z.l.v.M.M.M.n.l.l.h * 6 x.M.M.M.M.M.M.M.M.M.M.m.M.M.M.M.M.v.z.z.z.d . .                                 ",
"              = 8.9.a.M.N.M.M.M.M.M.M.N.M.a.9.9.f s 6.N.N.M.M.M.M.M.M.M.M.M.M.M.M.M.M.M.M.p.0.7.% .                             ",
"              * j.n.m.M.M.M.M.M.M.M.M.M.M.M.N.v.l i b 0.w.l.N.M.M.M.M.M.M.M.M.M.M.M.M.M.M.M.B.v.c p y                           ",
"              * i.l.x.m.m.M.M.M.M.M.M.M.M.M.M.M.m.N.r., = 9.z.z.m.M.M.M.M.M.M.M.M.M.M.M.M.M.M.M.M.N.r.= =                       ",
"              * i.l.l.l.l.b.N.M.M.M.M.M.M.M.M.M.M.M.n.l.l.h * 6 z.M.M.M.M.M.M.M.M.M.M.M.M.M.M.M.M.N.n.k.k.s . .                 ",
"              * i.h.k.k.h.l.x.c.M.M.M.M.M.M.M.M.M.M.N.M.N.s.9.9.f i 6.N.N.m.M.M.M.M.M.M.M.M.M.M.M.M.N.N.B.s.T v X               ",
"              * i.l.h.h.k.k.l.l.v.b.n.M.M.M.M.M.M.M.M.M.M.N.N.b.c i b 9.w.l.N.N.M.M.M.M.M.M.M.M.M.M.m.b.n.n.z.t.y ,             ",
"              * i.l.k.h.p.i.s.h.k.j.z.b.m.m.M.M.M.M.M.M.M.M.M.M.M.N.w.= = 9.z.x.b.M.M.M.M.m.m.M.m.m.v.g.g.k.a.q.q.6 .           ",
"              * i.k.k.p.1 % f k.j.j.j.l.l.b.M.M.M.M.M.M.M.M.M.M.M.M.b.l.l.j * 6 x.N.M.M.M.c.j.k.k.k.f.w.r.r.e.q.0.6 .           ",
"              * i.k.k.i.& e x y u e.l.l.k.x.x.x.m.M.M.M.M.M.M.M.M.M.M.N.M.a.9.8.h y.v.c.x.f.y.y.y.y.t.q.q.q.0.q.0.6 .           ",
"              & i.l.k.i.* Q o.0 0 n A 6.g.l.k.l.v.b.n.M.M.M.M.M.M.M.M.M.M.N.M.x.h N 8.a.a.t.0.0.q.q.q.q.q.q.q.e.q.6 .           ",
"              & i.k.l.i.* E 2.2.2.t @ 2 w.i.s.j.j.l.x.m.m.m.M.M.M.M.M.M.m.m.v.g.d.w 6 q.0.q.q.q.q.q.q.q.q.q.q.q.q.6 .           ",
"              * p.l.l.i.@ Q 2.2.2.*.%.[ 4 % f h.j.j.j.l.l.n.M.M.M.M.m.m.x.k.f.e.0.8 8 0.q.q.q.q.q.q.q.q.q.q.q.q.q.8 .           ",
"              * p.d.j.i.* Q 2.1.2.2.2.:.` Q x y u w.l.l.j.l.x.c.M.M.n.z.u.t.t.q.8.1 1 0.q.q.q.q.q.q.q.q.q.q.q.q.0.5 .           ",
"              * i.l.l.i.* E 2.>. .} +.1.2.2.] 0 0 n S 6.g.l.j.k.v.b.x.a.e.q.q.q.0.8 8 8.q.q.q.q.q.q.q.q.q.q.q.q.0.3 .           ",
"              * i.l.h.i.* E 2.=.G F I 1.2.2.1.2.3.t @ 4 r.i.s.k.j.j.a.q.q.q.q.q.8.1 8 q.q.q.q.q.q.q.q.q.q.q.q.q.q.8 .           ",
"              * i.j.l.i.* E 2.=.G F P 1.2.1.1.1.1.*.%.] 4 % f j.j.j.a.q.q.q.q.q.0.1 8 8.q.q.q.q.q.q.q.q.q.q.q.q.0.6 .           ",
"              * i.l.j.i.* E 2.>.X.} +.1.>.2.1.1.1.2.2.:.` ; y j.j.j.a.q.q.q.q.q.q.8 8 8.q.q.q.q.q.q.q.q.q.q.q.8.8 ,             ",
"              * i.j.j.p.* E 2.2.2.2.2.1.1.1.1.:. .} +.1.2.0 u h.j.k.a.q.q.q.q.q.0.1 1 0.q.q.q.q.q.q.q.q.q.e.7.g +               ",
"              * i.l.j.p.* E 1.=.1.1.1.1.1.1.1.=.G F I 1.1.0 y j.j.j.a.e.q.q.q.q.0.1 8 0.q.q.q.q.q.q.q.q.q.8.f X                 ",
"              * i.j.k.i.* Q X.K =.1.1.1.1.1.2.=.G F I 1.1.0 9 j.j.k.a.q.q.q.q.q.0.5 8 0.q.q.q.q.q.q.q.q.q.u O .                 ",
"              * i.k.k.i.* Q } G =.2.1.1.2.1.1.:. .} +.1.1.0 u h.j.k.a.q.q.q.q.q.q.5 3 0.q.q.q.q.q.q.q.8.8 d 8 .                 ",
"              * i.k.k.i.* Q } G =.2.1.>.X.*.1.1.1.2.1.1.1.0 y j.j.k.a.q.q.e.q.q.0.5 5 q.q.q.q.q.q.e.D j 8 S v .                 ",
"              * i.k.k.i.* E X.K +.>.1.=.J } 2.1.1.2.1.1.>.0 y j.j.k.a.q.q.q.q.q.q.5 6 q.q.q.q.q.q.8.j < D q.l .                 ",
"              * i.l.k.i.& E >.#.K  .1.-.J } 1.1.1.1.1.1.>.0 y j.k.k.a.q.q.q.q.q.0.5 8 0.q.q.0.0.q.8 8 7.0.e.l .                 ",
"              * i.k.k.i.% ; W 2.X.^ P I { ! ' 1.1.2.+.! ;.q y j.k.k.a.q.q.e.q.q.q.5 3 0.q.q.e.8.8 a S q.q.e.l .                 ",
"              * i.l.l.s.f 9 z Q Q ~ P ! ;.' ~  .>.2.} G =.0 y j.k.k.a.q.e.t.e.q.0.5 8 0.q.e.D j 8 S 0.0.e.e.v .                 ",
"              * r.d.k.k.j.l.6.* * Q %.%.1.1...K +.-.{ K -.q u j.k.k.a.q.e.e.q.q.0.3 3 e.0.8.j , D q.q.0.6.6.j .                 ",
"                * 6.k.k.k.k.d.i.i.s @ : $.<.,.#.L H ~ &.<.w i k.j.j.a.e.q.e.e.e.0.8 8 q.q.9 8 D 0.q.q.D < $ $                   ",
"                  7 u f d.l.l.k.k.q.S C r w ) 1.O.] O.3.<.w i k.j.j.a.e.e.e.q.e.0.8 8 7.9 p S e.q.f 3 8                         ",
"                    . o M A q.j.k.k.z.d.j u z Q ( $.3.3.3.q 9 k.j.j.a.q.e.q.e.q.0.8 , g 8 S D j j 3 X .                         ",
"                      $ $ $ p u.i.g.j.j.j.k.6.* * / %.%.3.0 9 k.j.j.a.0.q.q.q.q.8.8 + = S 7.j $ %                               ",
"                X . 7 6.D 7.j = * 6.k.k.k.k.d.i.p.s @ : %.0 9 k.k.k.a.q.q.q.q.q.0.3 1 S , + 8 D D 8 . .                         ",
"            . * 8.0.y.l.z.u.D j c p y d d.l.l.k.k.e.D A w @ 9 k.k.k.a.q.q.q.q.q.0.8 + 8 j j S q.q.V j j O .                     ",
"          9 i c b.N.N.M.M.j.a.a.e.f 1 8 C A q.k.k.w.S A i 9 B k.k.k.a.q.q.q.q.q.0.5 + 8 8.q.q.q.q.q.y.y.j p u                   ",
"        . A x.m.m.M.M.M.M.M.M.b.u.r.r.6.< $ i i.i.p % 5 i.k.k.k.k.k.a.q.q.q.q.q.0.3 8 q.q.q.q.q.t.e.f.m.M.N.r.* %               ",
"        . S l.l.l.b.M.M.M.M.M.M.n.n.h.q.7.7.j = = Z p.i.k.k.k.k.k.k.p.q.q.q.q.q.q.1 5 0.q.q.q.t.v.n.m.M.M.M.n.j.j.u .           ",
"        . S l.k.l.x.c.v.m.M.M.M.M.M.n.z.k.u.D j b 9 9 f d.k.k.k.k.k.a.q.q.q.q.e.q.8 8 0.q.a.z.z.m.M.M.M.M.M.N.N.N.y.j X         ",
"        . S l.g.6.A q.k.b.b.n.M.M.M.M.M.M.h.a.a.r.f 5 9 C Z q.k.k.k.a.q.0.q.D j g 8 d q.a.v.M.M.M.M.M.M.M.M.m.v.l.g.V .         ",
"        . S l.i.* + a p.h.k.x.m.m.M.M.M.M.M.M.n.y.r.r.6., $ 9 a.u.g.a.0.7.7.j O $ S e.y.n.M.M.M.M.M.M.M.m.n.c.f.r.e.j .         ",
"        . S l.p.* T T 1 a.k.j.k.z.b.M.M.M.M.M.M.n.n.k.q.9.T j = & 7.a.D , O 8 D D 8.u.n.M.M.M.M.M.M.M.m.z.u.r.e.e.e.j .         ",
"        . S z.d.7.k - $ u.k.j.j.h.z.c.v.m.N.M.M.M.M.b.k.k.u.D j l d 8 8 j j S e.j.z.v.M.M.M.M.M.M.v.j.p.u.e.q.q.e.e.j .         ",
"        . A l.l.k.V 8 f f.j.j.j.j.j.h.j.v.b.n.M.M.M.M.M.B.k.p.a.e.f 1 9 8.p.f.f.m.M.M.M.M.M.m.b.z.f.u.q.q.q.q.q.q.e.j .         ",
"        . C p.p.h.k.h.j.j.h.j.j.j.j.j.j.h.h.x.m.m.M.M.M.N.N.M.n.u.t.t.t.t.k.M.M.M.M.M.M.m.m.c.f.e.q.q.q.q.q.q.q.q.e.j .         ",
"          * % 1 p.k.j.j.j.j.k.j.j.j.j.j.h.h.k.l.l.b.M.M.M.M.M.M.n.n.n.n.n.m.M.M.M.M.M.m.z.u.r.e.q.q.q.q.q.q.q.q.q.e.j .         ",
"                u 9 V k.l.k.j.j.j.k.k.s.d 8 B k.l.z.c.c.M.M.M.M.M.N.M.M.N.M.M.M.M.b.j.p.u.e.q.q.q.q.q.q.q.q.q.q.q.e.j .         ",
"                . . 7 S S i.k.k.j.j.l.a.u 5 p S S i.k.l.v.b.n.M.M.M.M.M.M.M.m.v.z.f.y.q.q.q.q.q.q.q.q.q.q.q.q.q.q.e.l .         ",
"                      . . C p.p.h.j.j.g.t.r.m % % C p.p.h.j.x.m.m.M.M.M.m.n.v.f.e.q.q.q.q.q.q.q.q.q.q.q.q.q.e.0.7.6.j .         ",
"                          * * 1 p.k.j.j.g.h.y.6.6.y % 1 p.j.l.l.j.n.M.m.j.u.e.e.q.q.q.q.q.q.q.q.q.q.q.q.q.q.q.6., $ %           ",
"                                u y V l.l.k.h.s.a.S j j u u M j.j.z.c.z.f.e.q.q.q.q.q.q.q.q.q.q.q.q.q.e.e.h 6 6                 ",
"                                . . 7 S S i.l.l.j.a.u.e.y 1 v j.j.j.j.f.e.e.q.q.q.q.q.q.q.q.q.e.q.r.6.c c 1 . .                 ",
"                                      . X C i.i.h.j.j.g.t.e.u.j.j.j.j.g.e.q.q.q.q.q.q.q.q.q.q.0.T 0.h X X                       ",
"                                          * % 1 i.l.j.j.h.g.h.j.j.j.j.g.e.q.q.q.q.q.q.q.q.0.e.D , $ %                           ",
"                                                y y M l.k.k.j.j.j.j.j.g.e.q.q.q.q.0.e.e.q.j 3 6                                 ",
"                                                . . 7 S S i.l.k.j.j.j.h.e.q.q.q.e.e.6.j j 1 . .                                 ",
"                                                      . X C p.p.h.j.j.g.t.q.q.q.7.6.j . .                                       ",
"                                                          & & 1 p.k.j.g.e.0.q.D , $ %                                           ",
"                                                                u 8 C g.t.j 3 8                                                 ",
"                                                                . . 8 S v 3 . .                                                 ",
"                                                                      . .                                                       "
};
