/* XPM */
static char *wall1676875859[] = {
/* columns rows colors chars-per-pixel */
"64 64 88 1 ",
"  c #2D135D",
". c #34165E",
"X c #2F1761",
"o c #331465",
"O c #351A63",
"+ c #3B1E64",
"@ c #36156A",
"# c #38166A",
"$ c #371868",
"% c #3B1C6C",
"& c #3A1771",
"* c #3D1C72",
"= c #3E1B7A",
"- c #3D236C",
"; c #3E2272",
": c #401E73",
"> c #421E7B",
", c #42246E",
"< c #432375",
"1 c #482776",
"2 c #452A74",
"3 c #492A76",
"4 c #45247A",
"5 c #49267D",
"6 c #46297A",
"7 c #4B2A7D",
"8 c #4C327D",
"9 c #51327D",
"0 c #57397F",
"q c #421D81",
"w c #472381",
"e c #4A2683",
"r c #4D2B83",
"t c #4C2689",
"y c #4E2B8A",
"u c #512E85",
"i c #522E8B",
"p c #4F3282",
"a c #4F3189",
"s c #523285",
"d c #583587",
"f c #563884",
"g c #593A86",
"h c #55338B",
"j c #59368D",
"k c #573A8B",
"l c #5A398D",
"z c #542D92",
"x c #552F9A",
"c c #563291",
"v c #5A3594",
"b c #573992",
"n c #5D3A94",
"m c #57319B",
"M c #5B359A",
"N c #5E3A9A",
"B c #613E96",
"V c #60379E",
"C c #623D9C",
"Z c #683F9F",
"A c #5731A0",
"S c #5C35A1",
"D c #5F39A0",
"F c #6037A1",
"G c #633DA2",
"H c #693FA1",
"J c #653FA8",
"K c #5F4197",
"L c #60418F",
"P c #624196",
"I c #64429C",
"U c #68459E",
"Y c #674898",
"T c #6A499E",
"R c #6642A3",
"E c #6945A4",
"W c #6C49A5",
"Q c #6742A9",
"! c #6B45AB",
"~ c #6E49AA",
"^ c #704DA7",
"/ c #714DAC",
"( c #7250A6",
") c #7451AE",
"_ c #6D46B0",
"` c #6F48B2",
"' c #734DB3",
"] c #7850B1",
/* pixels */
"---;;-&aaNMbNiztie57Pb74*s@erRMmSADRRr7-s38s---38u7uyhh*y7u3s0d1",
"8888;;;bb!EDGvGMherePBsyhKrkaERQmAQ~Wkp<lflL-,,97fuuthnhgslfYBB5",
"XX----*aaRRKZcCte5usYKffhhabwNmMAmDQP5<$4;46$%-77huucNIbCsr@44jh",
"-;8LkKaKbRRYWZZeuhvhYnhlkhhhwINRJSDRRhkrkr6p3829uBvvCNGMWnP45*cj",
";8pKKYhb4r5es>e<jhr*44<7krrr;NN!!McbInPhhr4r61+1<nnczyMEEP)hc=t>",
"pabYYEhkwhjPB5hnZnj<656slhsncECR^CvvRRRhnbcns8,91jnNMMRE~W)I!jvt",
"akkbhh*=;yhnP<7snnb7se464pyKCNbicy5yNIRymNca5<.,154uvNNyNnW~)INz",
"aKNnhbrhahslP6ssPBn7ar<<<krnInvvBhyyPREyDDcnll9gdsyhvGENcnRWRvvz",
"ivCN5yhwe7sbP66<hyfys46746rlunnnv5ucc>vnVvzchf137sh<hRErwebYnhcy",
"hnnKbIRCrephl77<hhBjr<<7<sllhERhiuBBCtQ!JGDNsu1f99s6rbb5r<arhrbh",
"wuthn!IKweyrh7hrjhlnhs6prkkhuUEv>tCVCuCCDNMnyu19ggkhhbnhk4<$44bh",
"wiynE~NNwhhee5llUBBIYTln<7hPBPhyVB^E^MHVDmMNhj1133<rrbbbT67$65Yb",
"wyenERyNvCVuuynjCnnTPTgL88sUPnhBBVEH^vEERMNIhh<<%<<yaRTKP77%76Kk",
">eenInc!~!CiMvMuuwrhnPs941;<4<yC!/'HC>>qNvCRyy77#%<rcIKhhes-<*r5",
"yvnRCNM/E!GMHCVeh><7KPhs<67suhuIV_]H^cnvNvCIuhdnrphhNICbnknp6<r6",
"ehbnhtehvVHCGMVuhwe4prsf<64hduuUZHHyVcCnnycNyhhsbahycicahslse5u7",
"7nBBheeVc!ZZEvECVcNekesk;77kg83YRGRbnIPbClnbjshPIEEvjujVBBCeu5d7",
"5sede>>jvUEVCcMvMubrh64445*ys7,gaabebWInh7rs7<1lC~/vc5iBVBHue:>:",
"ruiBBBhZvVHjVvcnCbnlbh7677*p792LaabrhIbhr7ssu5rnC!~ncuBEUBCiBdd7",
":47BZBeicictiivcvhvlgfraya4r%%%gaba7yey5*44&:7uhnCRnjcBCHVv>uud1",
"5rdBBB>uiniivinyhsljuu7hRWNC5<*faLpah5bbbhr*4bnCetucjVZCHH!zBuBd",
"5rjBZB>rincvMuCyuundfusBKRPRvir7parLk4PPnsryhnCIe5tjVUQFFZ!BBuld",
">dTTUTrdruiuutnhu1u3sulUIGEE^WIf;8;;r;rryrlKNRKWVBjZBUCM`_HVVd0,",
"5nTBnZujnjCueuNCB79,9uBIEE'!/EIy;;p;3p767kRNNIR!ijBEVEEH`!]VBdd1",
"edjjPP:IdhldjuCEP111u7ujtMM!ECnu;26-pXr4hhIbRRwyijVjziyqFHHGc5h7",
"jZjBUl4lBBnreuCnB971uuejtMD!!QCj2286f%s6nbTnNKtniBjjBVvzmMEQCuBd",
"BU>udr<<:<u7shbe711>deecqzzDMBcu2;6;s%s7Yhbryh4yzitetjhtztMxvvdl",
"BB:>usu<r<57hhhy>:>1viuMS!J!VVju768;f6PPPshrhnvW!ZBzjZZZGzMiVZju",
"uu4<<5<<7<<*era51:>5jhuMG!GJMnhu*-2;77bPh444rdgI!HVhdBZZEcceVCu>",
"ehPb4r<s3684hYWhjuBBHZQ!J_GQMvuu;;rrlsnll77rrhnZZ!ZBzjjjvcvxE!ZV",
"ybIP6768ssr<ynThheZZZvZH!_GQVj5:4;6rnbkps6us7jPUGJHnuu75>iizGEEH",
"CCIIhbnl<<shPPnuZv//CVHJmDS!!!IBawysYYbslgBl7snCFJHvuu77jZciCMJV",
"aQR~KmNN4tcBBBZeCCQ!JGQ_zztH!EvvhanbTUl7uufn:1rnVDMbuu7,ddBhciQM",
"abbQ!QRRxVGCVjlhCCCGVMGHtttcVvzcnNRPTPs<dssn:rrnEQMu5us13:drhzNM",
"DbaG!!VVMRVhV7dBECHvCNCCMMzVcvcCcnEIEjs<lhlBrnnIGRNhshf11@hunNNM",
"eyebNNxMNCBVZtjZvjc5ciVjczyhtttvNNINle5:uuhjrnnCvNnvhhh45@recNcz",
"aKRECCVEVNEEZuBnBjh:jBEZCVjCCciCREIbheiunjnnunPIPNvjdhnnPyhbRNRh",
"bR(EvciCGMVvztZVBj7:inEEZCBEECjUnciyu>hvChnjunnI74<rrrjvIiicIbNe",
"hvIIMCxGFHVizvECBdr5jBCCCCBUIInNRENNnehiChnCCRRI446jBPUNniCnInPh",
"cycnnVeztHCcVMBt59>>hh5eunvvhNhcnNNCCwy>hevIIInh<47dBIIuywIvnBvh",
"cCmVZVVVMVMMGGGnjrjhjjvVnCREhyuvcNRNRNIvvwiCCEBsus17jncuyehCBuhr",
"zVzVVVVmvCVvVCIcltcuzivvbRCcwyytycbcKNNbbwrcInreudu5e5trieyu7&<%",
"FHF!HJZCcCVnnNECUjVjCIEER!nbyy5heyihE!)~NhweIZd^PYBu5eueheyuu<ur",
"mFFJmVCVVvcuvjYIBhhhCIICIEnnbu5bsyytKI~)RnyyCnuBIBjhunB5y7shh5dh",
"mGJ!MMVnnu1<3,sgBsbhnKnb5bhhas47reyunNRWRbvcuuhhjjuhjUUu57lBnhPB",
"F!Q'HNIPPd1<3,33lublnnnh4shgfg1154hCEI!ERcnb>uBbehivBBBu<<dnlhUP",
"SJmVccuh3,+.-.-.r7khkshh<*%973--y5nWENKuCbICyrr1tcvciuu551775:7<",
"GJvvbjuu390388f3lkEIYnPPhhhglYlys*b~!NIyRlBBsuuvhCvjj777gsddlhl5",
"zChB11#u57u<shs7bNG~CIuucivzcE!c4<bINe4%sfll4svuuh%6;654hsdBshd&",
"nCjUll<55ut5iulhICG!CIijVFJNcR!JCvIWGccyffff6hCnys<nhhy7BCU^Bjj>",
"wyejld<<4i5wu5BsNNDGcy<yvDQEcEQQMyMMNiceru<<*hCVah6PKhyrvNW/Zhje",
"eyhnBPlh<ueei1iuIK_!ne4jcMNCh!RGRNQ!!JEVhh745NEEhlhWInvcvnREZjBV",
"zccchPnl54e4y<<>bcGGnurbDNhc5PNDGMRJJG_GBBiueVZHrlbTEPNyGNNMniCH",
"RGcvhWInInCbBvuhPmDR/^T(EEKlrnhNMMQ_'`'J!~HEMZH!ylyhhiceccNcVuvz",
"GQvNwICnnNCNCuurKcGR~WTTRRIbgglvzzQ_'''VHZE/vMVBhle7ewhycNRnEzvt",
"MQNK*hjnhCCEEtu1aaDMPhpeew;&-77yttMNJHJzHZ!]zhVZrr<5e5ccIRRhvtcu",
"R!RCiBuvCRG~Enu*hy!`Ka<6yvsu394uyunvG^CyZV]/ZZHZ777hnrujIWEvh>nh",
"yMGCnnyutbnNvhu=hyQQcr6yyhbg98<1&*uhU/UqciVViVZZ57sjBeervNnsu<nh",
"ymIbvjshhnnNRWEiPN'_MirbRPBB997hhrkgTUB>CcHVvZZH>ddnBsy5shhra<lf",
"qcZBlny7yytcN!EhNN!QbawhCcnl13<5r7s7gdBeMzMMzvzj5uuuvuuy547474gs",
"qcNPhBuuracRRRWICnRJGChCGMNb111h88L9g3nuCGQ!HEZBzBuicvhuw465fslf",
"whys<u<sytyDRWWRCcmmDChvGMvh<15jg0821.duNMJ!`!VVtjtzcMcuy4r5h7s<",
"unnPdgrhNhwiR!WcCMSMRRzcMG!WPgeyp33-2oBIMVFJHJVVcCVZRERE!nPkPks;",
"ushsu77bht==tcMriyxxCVetzNCCng4;%O-.,.dhMmAxVFzMtVMZMNNCRhhylr4o"
};
